<?xml version="1.0" standalone="no"?>
<svg xmlns:xlink="http://www.w3.org/1999/xlink" id="wave" style="transform:rotate(180deg); transition: 0.3s" viewBox="0 0 1440 100" version="1.1" xmlns="http://www.w3.org/2000/svg"><defs><linearGradient id="sw-gradient-0" x1="0" x2="0" y1="1" y2="0"><stop stop-color="rgba(255, 249, 234, 1)" offset="0%"/><stop stop-color="rgba(255, 249, 234, 1)" offset="100%"/></linearGradient></defs><path style="transform:translate(0, 0px); opacity:1" fill="url(#sw-gradient-0)" d="M0,10L40,23.3C80,37,160,63,240,71.7C320,80,400,70,480,60C560,50,640,40,720,43.3C800,47,880,63,960,60C1040,57,1120,33,1200,31.7C1280,30,1360,50,1440,63.3C1520,77,1600,83,1680,75C1760,67,1840,43,1920,38.3C2000,33,2080,47,2160,55C2240,63,2320,67,2400,71.7C2480,77,2560,83,2640,76.7C2720,70,2800,50,2880,38.3C2960,27,3040,23,3120,33.3C3200,43,3280,67,3360,68.3C3440,70,3520,50,3600,45C3680,40,3760,50,3840,46.7C3920,43,4000,27,4080,23.3C4160,20,4240,30,4320,33.3C4400,37,4480,33,4560,38.3C4640,43,4720,57,4800,58.3C4880,60,4960,50,5040,40C5120,30,5200,20,5280,23.3C5360,27,5440,43,5520,41.7C5600,40,5680,20,5720,10L5760,0L5760,100L5720,100C5680,100,5600,100,5520,100C5440,100,5360,100,5280,100C5200,100,5120,100,5040,100C4960,100,4880,100,4800,100C4720,100,4640,100,4560,100C4480,100,4400,100,4320,100C4240,100,4160,100,4080,100C4000,100,3920,100,3840,100C3760,100,3680,100,3600,100C3520,100,3440,100,3360,100C3280,100,3200,100,3120,100C3040,100,2960,100,2880,100C2800,100,2720,100,2640,100C2560,100,2480,100,2400,100C2320,100,2240,100,2160,100C2080,100,2000,100,1920,100C1840,100,1760,100,1680,100C1600,100,1520,100,1440,100C1360,100,1280,100,1200,100C1120,100,1040,100,960,100C880,100,800,100,720,100C640,100,560,100,480,100C400,100,320,100,240,100C160,100,80,100,40,100L0,100Z"/></svg>